<svg xmlns="http://www.w3.org/2000/svg" xmlns:xlink="http://www.w3.org/1999/xlink" xmlns:serif="http://www.serif.com/" width="100%" height="100%" viewBox="0 0 3360 782" version="1.1" xml:space="preserve" style="fill-rule:evenodd;clip-rule:evenodd;stroke-linecap:round;stroke-linejoin:round;stroke-miterlimit:2;">
    <g>
        <g>
            <path d="M32.161,53.341l74.335,-0l-0,337.962l134.839,-0l-0,-241.155l0.864,-15.558l5.186,-17.287l6.915,-16.423l11.237,-16.423c7.491,-10.948 19.592,-19.303 36.302,-25.066c16.711,-5.762 36.303,-8.643 58.776,-8.643c24.202,-0 46.099,3.889 65.691,11.668c19.592,7.78 38.32,20.025 56.183,36.735c16.135,14.982 28.668,34.142 37.599,57.48c8.932,23.337 13.398,50.276 13.398,80.817c-0,29.964 -3.602,56.039 -10.805,78.224c-7.202,22.185 -17.575,40.048 -31.116,53.59c-13.542,13.541 -28.956,25.786 -46.243,36.735c-14.982,8.643 -31.117,14.982 -48.404,19.015l-49.268,7.779l-49.268,1.729l-266.221,0l0,-381.179Zm414.025,299.066c28.812,-25.931 43.218,-64.539 43.218,-115.824c-0,-23.625 -3.025,-43.937 -9.076,-60.936c-6.05,-16.999 -15.702,-31.549 -28.956,-43.65l-19.015,-14.694l-19.016,-11.237l-19.016,-6.05l-19.016,-2.593c-10.948,-0 -20.168,1.44 -27.659,4.321c-7.491,1.729 -13.541,5.475 -18.151,11.237c-4.61,5.762 -8.068,12.389 -10.373,19.88l-3.457,25.931l0,231.646c58.2,0 101.706,-12.677 130.517,-38.031Z" style="fill:url(#_Linear1);fill-rule:nonzero;"/>
            <path d="M886.142,443.164c-0,5.762 1.44,11.236 4.321,16.422l13.83,14.694c5.186,3.458 13.253,6.627 24.202,9.508l34.574,3.458l48.404,0.864l-0,54.454l-68.284,0c-3.457,0 -9.94,1.153 -19.448,3.458c-9.508,2.305 -19.16,6.626 -28.956,12.965l-41.489,25.93l-12.965,8.644c-11.525,5.762 -25.642,10.372 -42.353,13.83c-9.22,1.728 -16.855,2.881 -22.906,3.457c-6.05,0.576 -15.126,0.864 -27.227,0.864c-8.643,0 -18.007,-0.144 -28.091,-0.432c-10.084,-0.288 -22.329,-2.449 -36.735,-6.482c-18.44,-3.458 -33.71,-10.085 -45.811,-19.881c-11.525,-8.067 -20.456,-18.583 -26.795,-31.548c-6.338,-12.966 -9.508,-26.363 -9.508,-40.193c0,-9.796 0.865,-17.719 2.593,-23.769c1.729,-6.051 3.89,-11.237 6.483,-15.559c2.593,-4.322 6.195,-7.635 10.804,-9.94l16.423,-3.457l12.965,0.864l12.101,2.593c3.458,1.153 6.051,2.881 7.78,5.186l3.457,9.508c-0,5.186 -1.008,9.652 -3.025,13.398c-2.017,3.745 -5.042,5.906 -9.076,6.482l-9.508,5.186c-1.729,1.729 -2.593,4.898 -2.593,9.508c0,9.22 2.305,17.143 6.915,23.77c4.61,6.627 11.813,12.533 21.609,17.719c7.491,3.458 17.575,6.627 30.252,9.508l33.71,3.457c15.558,0 29.388,-2.305 41.489,-6.914c13.829,-3.458 27.947,-9.796 42.353,-19.016l34.574,-19.88l21.609,-6.051c-9.796,-1.728 -17.863,-4.321 -24.202,-7.779c-6.339,-3.457 -11.525,-6.627 -15.558,-9.508c-4.034,-2.881 -6.915,-5.186 -8.644,-6.915c-6.338,-4.609 -11.525,-11.236 -15.558,-19.88c-4.034,-8.643 -6.051,-17.863 -6.051,-27.659l0,-9.508l-209.173,0l0,-381.179l74.334,-0l0,337.962l134.839,-0l0,-241.155l0.865,-15.558l5.186,-17.287l6.915,-16.423l11.236,-16.423c7.491,-10.948 19.592,-19.303 36.303,-25.066c16.711,-5.762 36.303,-8.643 58.776,-8.643c24.202,-0 46.099,3.889 65.691,11.668c19.592,7.78 38.319,20.025 56.183,36.735c16.134,14.982 28.667,34.142 37.599,57.48c8.932,23.337 13.398,50.276 13.398,80.817c-0,29.388 -3.17,53.59 -9.508,72.605c-5.186,20.745 -14.262,38.464 -27.227,53.158c-12.966,14.694 -26.507,26.795 -40.625,36.303c-14.118,9.508 -29.244,16.567 -45.379,21.176c-16.134,4.61 -32.269,8.068 -48.403,10.373l-46.675,3.457l-0,8.644Zm130.517,-90.757c28.812,-25.931 43.218,-64.539 43.218,-115.824c-0,-23.625 -3.026,-43.937 -9.076,-60.936c-6.051,-16.999 -15.703,-31.549 -28.956,-43.65l-19.016,-14.694l-19.015,-11.237l-19.016,-6.05l-19.016,-2.593c-10.948,-0 -20.168,1.44 -27.659,4.321c-7.491,1.729 -13.542,5.475 -18.152,11.237c-4.61,5.762 -8.067,12.389 -10.372,19.88l-3.457,25.931l-0,231.646c58.199,0 101.705,-12.677 130.517,-38.031Z" style="fill:url(#_Linear2);fill-rule:nonzero;"/>
            <path d="M1602.69,146.691c8.067,11.524 14.982,23.625 20.744,36.303c5.763,12.677 10.228,26.65 13.398,41.921c3.169,15.27 4.754,29.244 4.754,41.921c-0,25.93 -2.737,49.556 -8.212,70.877c-5.474,21.32 -12.821,39.472 -22.041,54.454c-9.219,14.982 -20.312,26.074 -33.277,33.277c-12.965,7.203 -28.092,10.805 -45.379,10.805c-14.982,-0 -29.1,-3.458 -42.353,-10.372c-11.525,-6.915 -21.609,-18.728 -30.252,-35.439c-4.034,-9.22 -7.779,-19.304 -11.237,-30.252c-0.576,-2.881 -2.593,-10.372 -6.05,-22.473c-1.729,-10.373 -3.17,-20.457 -4.322,-30.253c-1.153,-9.796 -1.729,-21.032 -1.729,-33.709l0,-19.448c0,-5.475 1.153,-14.838 3.458,-28.092c2.305,-13.253 6.626,-27.371 12.965,-42.353l12.101,-25.931l12.101,-19.88c4.033,-6.915 8.067,-12.389 12.101,-16.422l-13.83,-6.051l-19.88,-8.643l-31.981,-6.915c-12.101,-1.729 -27.371,-2.593 -45.811,-2.593c-21.32,-0 -40.48,2.737 -57.479,8.211c-16.999,5.474 -32.702,13.542 -47.107,24.202c-14.406,10.66 -26.507,24.922 -36.303,42.785c-7.491,14.982 -12.966,33.71 -16.423,56.183l3.457,-2.593l4.322,-3.457l5.186,-4.322c4.034,-2.881 7.924,-5.33 11.669,-7.347c3.746,-2.017 10.084,-4.61 19.016,-7.779c8.932,-3.169 19.736,-4.754 32.413,-4.754c5.186,-0 11.237,0.144 18.152,0.432c6.914,0.288 15.558,2.449 25.93,6.483c13.83,3.457 26.507,10.084 38.032,19.88c11.524,8.643 20.168,20.456 25.93,35.438c5.763,14.982 8.644,30.829 8.644,47.54c-0,16.71 -2.593,32.557 -7.779,47.539c-5.187,14.982 -12.966,29.388 -23.338,43.218c-10.372,12.101 -22.761,21.608 -37.167,28.523c-15.559,5.763 -31.405,8.644 -47.54,8.644c-15.558,-0 -30.54,-2.881 -44.946,-8.644c-14.406,-5.762 -27.803,-15.558 -40.192,-29.388c-12.389,-13.829 -22.617,-32.557 -30.685,-56.183c-6.338,-23.625 -9.508,-50.996 -9.508,-82.113c0,-30.541 4.898,-58.056 14.694,-82.546c9.796,-24.49 24.346,-47.107 43.65,-67.851c19.304,-20.745 42.353,-36.159 69.148,-46.243c26.795,-10.084 57.48,-15.126 92.054,-15.126l49.268,2.593c12.677,1.728 24.634,4.033 35.871,6.914c11.236,2.882 21.752,6.339 31.548,10.373c9.796,4.033 17.864,8.931 24.202,14.694l25.931,-14.694c8.643,-4.61 18.439,-8.068 29.388,-10.373l31.117,-6.05l32.845,-2.593c28.235,-0 53.734,4.466 76.495,13.397c22.761,8.932 43.65,22.041 62.666,39.328c19.015,17.287 33.421,37.888 43.217,61.802c9.796,23.913 14.694,50.564 14.694,79.952c0,32.269 -3.601,59.929 -10.804,82.978c-7.203,23.049 -17.719,43.074 -31.549,60.073c-13.83,16.999 -29.676,30.108 -47.539,39.328c-16.711,7.491 -33.998,11.236 -51.861,11.236l-7.78,-1.729l-7.779,-6.05l-6.05,-8.644l-4.322,-9.507l-1.729,-6.915l0,-4.322c0,-3.457 1.153,-6.339 3.458,-8.643l10.372,-6.051l14.694,-3.457l17.287,-5.186c6.338,-1.729 12.389,-6.051 18.151,-12.966c5.763,-6.915 11.093,-16.278 15.991,-28.091c4.898,-11.813 8.643,-25.499 11.236,-41.057c2.593,-15.558 4.034,-27.227 4.322,-35.006c0.288,-7.779 0.432,-13.974 0.432,-18.584c0,-19.592 -3.313,-38.175 -9.94,-55.751c-6.626,-17.575 -16.566,-32.989 -29.82,-46.242c-12.101,-13.83 -26.219,-24.346 -42.353,-31.549c-16.135,-7.203 -33.998,-10.805 -53.59,-10.805l-8.644,0.865l-8.643,-0l-8.644,1.728l-8.643,2.593l-16.423,5.187l-14.694,6.914c5.763,5.186 10.805,10.229 15.126,15.127c4.322,4.898 8.788,10.804 13.398,17.719Zm-337.098,101.993c-6.338,3.458 -12.389,8.932 -18.151,16.423c-5.762,7.491 -9.94,15.558 -12.533,24.202c-2.593,8.643 -4.034,15.27 -4.322,19.88c-0.288,4.61 -0.432,8.067 -0.432,10.372c-0,11.525 1.441,21.609 4.322,30.253c2.881,8.643 6.77,16.278 11.668,22.905c4.898,6.627 11.381,12.533 19.448,17.719c6.915,3.458 14.118,5.186 21.609,5.186c7.491,0 14.694,-1.872 21.609,-5.618c6.915,-3.746 12.821,-9.076 17.719,-15.991c4.898,-6.914 9.076,-15.558 12.533,-25.93c1.729,-6.339 2.882,-10.949 3.458,-13.83c0.576,-2.881 0.864,-7.779 0.864,-14.694c0,-11.524 -1.44,-21.32 -4.322,-29.388c-1.728,-8.643 -5.33,-16.566 -10.804,-23.769c-5.474,-7.203 -11.525,-12.678 -18.151,-16.423c-6.627,-3.746 -14.262,-6.195 -22.906,-7.347c-6.915,-0 -14.118,2.017 -21.609,6.05Zm217.817,66.556c1.729,13.829 4.898,25.066 9.508,33.709c3.458,9.22 7.923,16.567 13.398,22.041c5.474,5.474 11.668,8.212 18.583,8.212c6.915,-0 12.821,-2.449 17.719,-7.347c4.898,-4.898 9.94,-13.398 15.127,-25.499c3.457,-11.525 6.05,-23.337 7.779,-35.438l3.457,-40.625c0,-13.253 -1.008,-25.21 -3.025,-35.87c-2.017,-10.661 -3.169,-16.711 -3.458,-18.152c-0.288,-1.44 -2.16,-7.203 -5.618,-17.287c-3.457,-10.084 -7.923,-19.304 -13.397,-27.659c-5.475,-8.356 -11.381,-15.703 -17.72,-22.041c-5.186,4.61 -10.948,11.813 -17.287,21.609l-14.694,30.252l-9.507,34.574l-3.458,35.439l2.593,44.082Z" style="fill:url(#_Linear3);fill-rule:nonzero;"/>
            <path d="M2047.83,106.066c-13.829,5.186 -26.795,13.83 -38.895,25.931c-11.525,9.796 -20.889,22.617 -28.092,38.463c-7.203,15.847 -12.533,35.295 -15.99,58.344l3.457,-2.593l4.322,-3.457l5.186,-4.322c4.033,-2.881 7.923,-5.33 11.669,-7.347c3.745,-2.017 10.084,-4.61 19.015,-7.779c8.932,-3.169 19.736,-4.754 32.414,-4.754c5.186,-0 11.236,0.144 18.151,0.432c6.915,0.288 15.558,2.449 25.931,6.483c13.829,3.457 26.506,10.084 38.031,19.88c11.525,8.643 20.168,20.456 25.931,35.438c5.762,14.982 8.643,30.829 8.643,47.54c0,17.287 -2.449,33.421 -7.347,48.403c-4.898,14.983 -12.821,29.677 -23.77,44.082c-10.372,12.101 -22.761,21.465 -37.167,28.092c-14.406,6.627 -30.252,9.94 -47.539,9.94c-16.135,-0 -30.973,-3.025 -44.514,-9.076c-13.542,-6.05 -27.515,-16.567 -41.921,-31.549c-11.525,-13.253 -21.321,-31.693 -29.388,-55.318c-6.339,-24.202 -9.508,-51.861 -9.508,-82.978c-0,-28.236 4.322,-55.175 12.965,-80.817c8.644,-25.642 21.897,-48.98 39.76,-70.013c17.864,-21.032 38.752,-36.735 62.666,-47.107c23.914,-10.372 49.7,-15.558 77.359,-15.558c29.965,-0 56.327,4.322 79.089,12.965c22.761,8.644 42.497,21.609 59.208,38.896c14.406,16.135 25.93,34.862 34.574,56.183c8.643,21.321 12.965,43.794 12.965,67.419l0,65.691c0,7.491 1.297,19.304 3.89,35.439c2.593,16.134 6.338,28.667 11.236,37.599c4.898,8.932 12.822,16.567 23.77,22.905c10.948,4.61 23.338,6.915 37.167,6.915c16.135,0 29.964,-3.745 41.489,-11.236c11.525,-7.491 21.609,-19.304 30.252,-35.439c6.915,-13.83 12.678,-30.828 17.287,-50.997c1.729,-10.372 3.17,-20.168 4.322,-29.388c1.153,-9.219 1.729,-19.592 1.729,-31.116l-0,-24.202c-1.729,-9.796 -3.169,-19.304 -4.322,-28.524c-1.152,-9.22 -3.601,-18.151 -7.347,-26.795c-3.745,-8.643 -8.211,-16.422 -13.397,-23.337l-13.83,-18.152c-4.61,-4.61 -11.236,-9.508 -19.88,-14.694c-1.729,-1.728 -5.618,-4.033 -11.669,-6.914c-6.05,-2.882 -11.669,-5.475 -16.855,-7.78c-10.372,-4.033 -18.583,-9.796 -24.634,-17.287c-6.05,-7.491 -9.075,-16.711 -9.075,-27.659c0.576,-4.034 1.152,-6.627 1.728,-7.779l5.186,-5.186l6.915,-3.458l8.644,-1.728l16.422,5.186l30.253,15.558c11.525,5.762 23.193,15.126 35.006,28.092c11.813,12.965 22.329,28.667 31.549,47.107c9.22,18.439 16.279,37.887 21.177,58.344c4.898,20.456 7.347,40.48 7.347,60.072c-0,31.117 -3.17,58.488 -9.508,82.114c-5.186,24.778 -14.118,46.53 -26.795,65.258c-12.677,18.728 -28.092,32.701 -46.243,41.921c-18.151,9.22 -39.328,13.83 -63.53,13.83c-27.083,-0 -49.412,-2.737 -66.987,-8.212c-17.575,-5.474 -31.693,-14.405 -42.354,-26.794c-10.66,-12.389 -19.159,-30.109 -25.498,-53.158c-5.186,-21.897 -7.779,-47.828 -7.779,-77.792l-0,-38.031c-0,-25.355 -3.169,-46.099 -9.508,-62.234c-5.186,-17.863 -13.974,-31.837 -26.363,-41.921c-12.389,-10.084 -26.363,-17.719 -41.921,-22.905c-15.558,-5.186 -33.133,-7.779 -52.725,-7.779c-14.406,-0 -28.524,2.881 -42.354,8.643Zm-38.031,142.618c-6.339,3.458 -12.389,8.932 -18.152,16.423c-5.762,7.491 -9.94,15.558 -12.533,24.202c-2.593,8.643 -4.033,15.27 -4.321,19.88c-0.289,4.61 -0.433,8.067 -0.433,10.372c0,11.525 1.441,21.609 4.322,30.253c2.881,8.643 6.771,16.278 11.669,22.905c4.898,6.627 11.381,12.533 19.448,17.719c6.915,3.458 14.118,5.186 21.609,5.186c7.491,0 14.694,-1.872 21.608,-5.618c6.915,-3.746 12.822,-9.076 17.72,-15.991c4.898,-6.914 9.075,-15.558 12.533,-25.93c1.729,-6.339 2.881,-10.949 3.457,-13.83c0.576,-2.881 0.865,-7.779 0.865,-14.694c-0,-11.524 -1.441,-21.32 -4.322,-29.388c-1.729,-8.643 -5.33,-16.566 -10.805,-23.769c-5.474,-7.203 -11.524,-12.678 -18.151,-16.423c-6.627,-3.746 -14.262,-6.195 -22.905,-7.347c-6.915,-0 -14.118,2.017 -21.609,6.05Z" style="fill:url(#_Linear4);fill-rule:nonzero;"/>
        </g>
        <path d="M2950.49,112.12c75.576,-129.333 226.73,-129.333 302.307,-64.666c75.579,64.666 75.579,194 0,323.333c-52.904,97 -188.942,194 -302.307,258.667c-113.365,-64.667 -249.403,-161.667 -302.307,-258.667c-75.577,-129.333 -75.577,-258.667 -0,-323.333c75.577,-64.667 226.73,-64.667 302.307,64.666Z" style="fill:url(#_Linear5);"/>
        <path d="M2931.8,412.241l-88.576,0l-0,-188.516l25.191,0l0,165.378l63.385,0l0,-118.343c0,-12.897 4.944,-23.897 14.831,-33c9.887,-9.104 21.738,-13.782 35.553,-14.035c21.399,-0.252 39.344,6.449 53.836,20.104c14.492,13.655 21.738,30.471 21.738,50.448l0,47.413c0,19.724 -7.314,36.414 -21.941,50.069c-14.627,13.655 -32.505,20.482 -53.633,20.482l-25.192,0c0,6.069 2.573,11.506 7.72,16.31c5.147,4.805 10.971,7.207 17.472,7.207l37.787,0l-0,23.517l-37.787,0c-16.524,0 -24.921,3.92 -25.192,11.759c-0.271,9.356 -4.131,17.638 -11.58,24.844c-7.449,7.207 -16.185,10.811 -26.207,10.811l-12.596,-0c-13.544,-0 -25.395,-4.742 -35.553,-14.224c-10.157,-9.483 -15.236,-20.546 -15.236,-33.19l-0,-11.758l25.191,-0l0,11.758c0,6.322 2.573,11.822 7.72,16.5c5.147,4.678 11.106,7.017 17.878,7.017l12.596,0c6.772,0 12.595,-2.339 17.471,-7.017c4.876,-4.678 7.449,-10.178 7.72,-16.5c0.271,-7.586 8.668,-11.505 25.192,-11.758c-10.294,-0 -19.097,-3.477 -26.411,-10.431c-7.313,-6.954 -11.106,-15.236 -11.377,-24.845Zm25.192,-23.138l25.192,0c13.543,0 25.327,-4.741 35.349,-14.224c10.022,-9.482 15.034,-20.545 15.034,-33.189l-0,-47.413c-0,-12.897 -4.944,-23.897 -14.831,-33c-9.887,-9.103 -21.738,-13.782 -35.552,-14.034c-6.501,-0 -12.325,2.402 -17.472,7.206c-5.147,4.805 -7.72,10.242 -7.72,16.311l0,118.343Zm-13.815,-261.342c6.501,-0.253 12.257,2.086 17.269,7.017c5.011,4.931 7.652,10.431 7.923,16.5c0.271,6.069 -2.235,11.442 -7.517,16.12c-5.282,4.679 -11.174,7.144 -17.675,7.397c-5.688,0.253 -11.647,-2.023 -17.878,-6.828c-4.875,-4.551 -7.313,-10.115 -7.313,-16.689c-0,-6.322 2.505,-11.759 7.517,-16.31c5.011,-4.552 10.902,-6.954 17.674,-7.207Z" style="fill:#f2f2f2;fill-rule:nonzero;stroke:#fff;stroke-width:4.17px;"/>
        <g>
            <g>
                <g>
                    <path d="M1938.82,619.981c-17.853,-6.113 -30.864,-24.244 -30.977,-45.715c4.418,18.788 22.833,33.947 44.417,33.812c21.585,-0.136 39.835,-15.528 44.047,-34.373c0.115,21.017 -12.152,38.984 -29.348,45.681c18.387,5.699 32.4,34.838 32.4,69.886c-0,2.643 -0.079,5.257 -0.232,7.826c0.022,-0.051 0.051,-0.108 0.073,-0.159c0,1.69 -0.153,3.346 -0.459,4.973c-1.837,18.534 -7.696,31.17 -15.76,45.104c-10.033,15.039 -17.223,20.212 -30.347,20.212c-17.121,-0 -25.724,-13.929 -33.987,-32.151c-6.442,-12.385 -10.389,-29.024 -10.389,-47.308c-0,-33.324 13.111,-61.186 30.562,-67.788Zm-6.227,107.571c2.654,9.771 6.169,18.091 10.139,24.204c3.154,0.885 6.477,1.367 9.902,1.367c5.144,0 10.061,-1.089 14.513,-3c3.221,-6.17 6.045,-13.849 8.211,-22.566c-6.368,2.632 -13.65,4.123 -21.379,4.123c-7.73,0 -15.018,-1.491 -21.386,-4.128Zm29.836,-106.692c-3.239,0.845 -6.619,1.305 -10.095,1.327c-2.722,0.018 -5.394,-0.238 -7.986,-0.737c-9.487,12.805 -16.831,38.031 -16.831,66.319c0,9.159 0.771,17.994 2.132,26.195c7.134,2.824 15.482,4.508 24.33,4.508c8.733,-0 16.974,-1.638 24.045,-4.395c1.185,-7.82 1.843,-16.174 1.843,-24.805c0,-29.36 -7.645,-55.492 -17.438,-68.412Z" style="fill:url(#_Linear6);stroke:url(#_Linear7);stroke-width:5.68px;stroke-linecap:butt;stroke-miterlimit:1.41421;"/>
                    <path d="M1966.33,621.246c-0.096,-0.261 0.018,-0.568 0,-0.006c17.223,2.246 53.859,71.775 53.599,120.149c-0.125,23.423 -4.68,29.361 -16.254,32.479c-8.331,2.246 -34.662,-29.359 -49.35,-72.415c-2.546,-7.474 0.538,-3.42 8.308,-15.006c8.768,-13.083 3.567,-59.405 3.697,-65.201Zm-26.921,1.372c-0.011,-0.573 0.103,-0.396 0,-0.13c0.125,5.762 -6.271,50.95 2.484,64.005c7.764,11.586 11.797,7.191 10.447,14.96c-5.552,31.963 -36.267,66.75 -47.542,71.094c-15.057,5.795 -21.992,-14.513 -20.983,-25.742c6.794,-75.737 51.478,-125.434 55.594,-124.187Z" style="fill:url(#_Linear8);stroke:url(#_Linear9);stroke-width:5.68px;stroke-miterlimit:1.5;"/>
                </g>
                <g>
                    <path d="M1444.23,766.836c-11.684,-0 -22.952,-2.455 -33.381,-7.372c-10.225,-4.47 -19.401,-11.172 -27.33,-19.668c-7.928,-8.269 -13.979,-18.096 -18.357,-28.827c-4.588,-11.393 -6.675,-23.24 -6.675,-35.308c-0,-12.289 2.297,-24.131 6.675,-35.303c4.378,-10.73 10.639,-20.558 18.567,-28.827c7.929,-8.495 17.314,-14.971 27.534,-19.667c10.645,-4.691 21.907,-7.152 33.38,-7.152c17.733,0 34.424,5.814 48.608,16.537c4.798,3.579 5.841,10.503 2.501,15.641c-3.335,4.917 -9.8,6.262 -14.604,2.683c-10.639,-8.269 -23.155,-12.51 -36.505,-12.51c-8.762,-0 -17.314,1.786 -25.452,5.586c-7.718,3.351 -14.808,8.489 -20.649,14.744c-6.051,6.482 -10.849,13.634 -14.189,21.903c-3.335,8.489 -5.007,17.206 -5.007,26.365c-0,9.164 1.672,18.102 5.007,26.371c3.34,8.268 7.929,15.641 13.98,21.901c12.306,13.181 28.577,20.558 45.897,20.558c9.176,0 18.146,-2.013 26.279,-6.034c6.681,-3.351 12.936,-7.82 18.153,-13.406l0,-46.48c0,-6.262 4.589,-11.173 10.43,-11.173c5.841,-0 10.43,4.911 10.43,11.173l-0,51.17c-0,2.682 -1.044,5.365 -2.712,7.373c-7.927,9.164 -17.103,16.537 -27.743,21.68c-10.848,5.359 -22.741,8.042 -34.837,8.042Z" style="fill:url(#_Linear10);fill-rule:nonzero;stroke:url(#_Linear11);stroke-width:5.68px;stroke-linecap:butt;stroke-miterlimit:1.41421;"/>
                    <path d="M1669.32,761.92c-4.803,2.233 -11.058,0.447 -13.979,-5.587l-14.393,-34.413c-13.561,-3.573 -27.12,-3.799 -40.266,-0.668c-10.639,2.234 -21.069,6.476 -31.288,13.184c-10.435,6.926 -21.284,16.089 -29.206,24.358c-3.964,4.242 -9.181,5.587 -13.56,2.677c-4.593,-3.124 -3.964,-9.386 -1.877,-14.524l65.922,-153.297c1.877,-4.02 5.421,-6.477 9.595,-6.477c3.964,0 7.928,2.683 9.386,6.477l64.878,153.297c2.297,5.813 0,12.29 -5.212,14.973Zm-69.262,-136.761l-40.055,91.397c11.059,-6.704 25.662,-12.738 37.345,-15.194c11.262,-2.682 22.735,-3.13 34.208,-2.013l-31.498,-74.19Z" style="fill:url(#_Linear12);fill-rule:nonzero;stroke:url(#_Linear13);stroke-width:5.68px;stroke-linecap:butt;stroke-miterlimit:1.41421;"/>
                    <path d="M1749.01,762.815l-47.354,-0c-6.05,-0 -10.639,-5.138 -10.639,-11.172l0,-153.297c0,-2.904 1.043,-5.813 3.131,-7.82c1.877,-2.014 4.798,-3.353 7.508,-3.353l47.774,0c11.473,0 22.532,2.457 32.751,6.926c10.016,4.468 19.192,10.95 27.119,18.998c7.72,8.041 13.77,17.427 18.154,28.151c4.379,10.951 6.675,22.35 6.675,34.192c0,11.62 -2.296,22.792 -6.885,33.522c-4.383,10.503 -10.429,19.883 -18.357,27.93c-7.929,8.269 -17.11,14.524 -27.12,18.993c-10.435,4.469 -21.488,6.93 -32.757,6.93Zm-36.924,-22.571l37.344,-0c8.552,-0.221 16.69,-2.013 24.409,-5.365c7.719,-3.352 14.603,-8.042 20.444,-14.076c5.842,-6.034 10.43,-13.185 13.974,-21.006c3.34,-7.82 5.008,-15.867 5.008,-24.357c0,-8.717 -1.668,-17.207 -5.008,-25.248c-3.334,-7.826 -7.928,-14.978 -13.764,-21.006c-12.102,-12.738 -27.958,-19.668 -45.063,-19.668l-37.344,-0l-0,130.726Z" style="fill:url(#_Linear14);fill-rule:nonzero;stroke:url(#_Linear15);stroke-width:5.68px;stroke-linecap:butt;stroke-miterlimit:1.41421;"/>
                    <path d="M2190.86,587.173l-98.049,0c-5.841,0 -10.428,5.139 -10.428,11.173l-0,153.297c-0,6.034 4.587,11.172 10.428,11.172c5.841,-0 10.43,-5.138 10.43,-11.172l0,-63.687l74.894,-0c5.63,-0 10.428,-4.917 10.428,-11.172c0,-6.035 -4.798,-11.178 -10.428,-11.178l-74.894,0l0,-56.088l87.619,-0c5.841,-0 10.43,-4.917 10.43,-11.172c-0,-6.034 -4.589,-11.173 -10.43,-11.173Z" style="fill:url(#_Linear16);fill-rule:nonzero;stroke:url(#_Linear17);stroke-width:5.68px;stroke-linecap:butt;stroke-miterlimit:1.41421;"/>
                    <path d="M2319.36,762.815l-90.959,-0c-5.632,-0 -10.43,-4.916 -10.43,-11.172l-0,-153.297c-0,-6.255 4.798,-11.173 10.43,-11.173c5.841,0 10.434,4.918 10.434,11.173l0,142.119l80.525,0c5.841,0 10.429,4.917 10.429,11.178c0,6.256 -4.588,11.172 -10.429,11.172Z" style="fill:url(#_Linear18);fill-rule:nonzero;stroke:url(#_Linear19);stroke-width:5.68px;stroke-linecap:butt;stroke-miterlimit:1.41421;"/>
                    <path d="M2445.57,588.96c-4.798,-3.351 -11.262,-2.013 -14.393,3.131l-47.564,76.197l-47.354,-76.197c-3.131,-5.144 -9.596,-6.482 -14.393,-3.131c-4.798,3.573 -6.052,10.503 -2.921,15.641l54.239,87.154l-0,59.888c-0,6.034 4.797,11.172 10.429,11.172c5.841,-0 10.435,-5.138 10.435,-11.172l-0,-59.888l54.444,-87.154c3.13,-5.138 1.882,-12.068 -2.922,-15.641Z" style="fill:url(#_Linear20);fill-rule:nonzero;stroke:url(#_Linear21);stroke-width:5.68px;stroke-linecap:butt;stroke-miterlimit:1.41421;"/>
                </g>
            </g>
            <g transform="matrix(3.125,0,0,3.125,-995.716,103.205)"><text x="334.261px" y="210.977px" style="font-family:'InaiMathi';font-size:64px;fill:#90a4ae;">© Shan S. Bala</text><text x="1132.47px" y="210.977px" style="font-family:'InaiMathi';font-size:64px;fill:#90a4ae;">2020</text><text x="1279.38px" y="210.977px" style="font-family:'InaiMathi';font-size:40px;fill:#90a4ae;">A.R.R</text></g>
        </g>
    </g>
    <defs>
        <linearGradient id="_Linear1" x1="0" y1="0" x2="1" y2="0" gradientUnits="userSpaceOnUse" gradientTransform="matrix(2405.84,-5.89262e-13,1.06603e-13,435.241,-11.0561,47.0939)">
            <stop offset="0" style="stop-color:#0081d5;stop-opacity:1"/>
            <stop offset="1" style="stop-color:#a133d5;stop-opacity:1"/>
        </linearGradient>
        <linearGradient id="_Linear2" x1="0" y1="0" x2="1" y2="0" gradientUnits="userSpaceOnUse" gradientTransform="matrix(2405.84,-5.89262e-13,1.06603e-13,435.241,-11.0561,47.0939)">
            <stop offset="0" style="stop-color:#0081d5;stop-opacity:1"/>
            <stop offset="1" style="stop-color:#a133d5;stop-opacity:1"/>
        </linearGradient>
        <linearGradient id="_Linear3" x1="0" y1="0" x2="1" y2="0" gradientUnits="userSpaceOnUse" gradientTransform="matrix(2405.84,-5.89262e-13,1.06603e-13,435.241,-11.0561,47.0939)">
            <stop offset="0" style="stop-color:#0081d5;stop-opacity:1"/>
            <stop offset="1" style="stop-color:#a133d5;stop-opacity:1"/>
        </linearGradient>
        <linearGradient id="_Linear4" x1="0" y1="0" x2="1" y2="0" gradientUnits="userSpaceOnUse" gradientTransform="matrix(2405.84,-5.89262e-13,1.06603e-13,435.241,-11.0561,47.0939)">
            <stop offset="0" style="stop-color:#0081d5;stop-opacity:1"/>
            <stop offset="1" style="stop-color:#a133d5;stop-opacity:1"/>
        </linearGradient>
        <linearGradient id="_Linear5" x1="0" y1="0" x2="1" y2="0" gradientUnits="userSpaceOnUse" gradientTransform="matrix(717.979,0,0,646.667,2591.5,306.12)">
            <stop offset="0" style="stop-color:#0081d5;stop-opacity:1"/>
            <stop offset="1" style="stop-color:#a133d5;stop-opacity:1"/>
        </linearGradient>
        <linearGradient id="_Linear6" x1="0" y1="0" x2="1" y2="0" gradientUnits="userSpaceOnUse" gradientTransform="matrix(1091.72,0,0,1091.72,1358.49,673.843)">
            <stop offset="0" style="stop-color:#56ccf2;stop-opacity:1"/>
            <stop offset="1" style="stop-color:#7e5edf;stop-opacity:1"/>
        </linearGradient>
        <linearGradient id="_Linear7" x1="0" y1="0" x2="1" y2="0" gradientUnits="userSpaceOnUse" gradientTransform="matrix(1091.72,0,0,1091.72,1358.49,673.843)">
            <stop offset="0" style="stop-color:#56ccf2;stop-opacity:1"/>
            <stop offset="1" style="stop-color:#7e5edf;stop-opacity:1"/>
        </linearGradient>
        <linearGradient id="_Linear8" x1="0" y1="0" x2="1" y2="0" gradientUnits="userSpaceOnUse" gradientTransform="matrix(1091.72,0,0,1091.72,1358.49,673.843)">
            <stop offset="0" style="stop-color:#56ccf2;stop-opacity:0.5"/>
            <stop offset="1" style="stop-color:#7e5edf;stop-opacity:0.5"/>
        </linearGradient>
        <linearGradient id="_Linear9" x1="0" y1="0" x2="1" y2="0" gradientUnits="userSpaceOnUse" gradientTransform="matrix(136.211,0,0,136.211,1883.72,697.452)">
            <stop offset="0" style="stop-color:#56ccf2;stop-opacity:1"/>
            <stop offset="1" style="stop-color:#7e5edf;stop-opacity:1"/>
        </linearGradient>
        <linearGradient id="_Linear10" x1="0" y1="0" x2="1" y2="0" gradientUnits="userSpaceOnUse" gradientTransform="matrix(1091.72,0,0,182.123,1358.49,675.774)">
            <stop offset="0" style="stop-color:#56ccf2;stop-opacity:1"/>
            <stop offset="1" style="stop-color:#7e5edf;stop-opacity:1"/>
        </linearGradient>
        <linearGradient id="_Linear11" x1="0" y1="0" x2="1" y2="0" gradientUnits="userSpaceOnUse" gradientTransform="matrix(1091.72,0,0,182.123,1358.49,675.774)">
            <stop offset="0" style="stop-color:#56ccf2;stop-opacity:1"/>
            <stop offset="1" style="stop-color:#7e5edf;stop-opacity:1"/>
        </linearGradient>
        <linearGradient id="_Linear12" x1="0" y1="0" x2="1" y2="0" gradientUnits="userSpaceOnUse" gradientTransform="matrix(1091.72,0,0,182.123,1358.49,675.774)">
            <stop offset="0" style="stop-color:#56ccf2;stop-opacity:1"/>
            <stop offset="1" style="stop-color:#7e5edf;stop-opacity:1"/>
        </linearGradient>
        <linearGradient id="_Linear13" x1="0" y1="0" x2="1" y2="0" gradientUnits="userSpaceOnUse" gradientTransform="matrix(1091.72,0,0,182.123,1358.49,675.774)">
            <stop offset="0" style="stop-color:#56ccf2;stop-opacity:1"/>
            <stop offset="1" style="stop-color:#7e5edf;stop-opacity:1"/>
        </linearGradient>
        <linearGradient id="_Linear14" x1="0" y1="0" x2="1" y2="0" gradientUnits="userSpaceOnUse" gradientTransform="matrix(1091.72,0,0,182.123,1358.49,675.774)">
            <stop offset="0" style="stop-color:#56ccf2;stop-opacity:1"/>
            <stop offset="1" style="stop-color:#7e5edf;stop-opacity:1"/>
        </linearGradient>
        <linearGradient id="_Linear15" x1="0" y1="0" x2="1" y2="0" gradientUnits="userSpaceOnUse" gradientTransform="matrix(1091.72,0,0,182.123,1358.49,675.774)">
            <stop offset="0" style="stop-color:#56ccf2;stop-opacity:1"/>
            <stop offset="1" style="stop-color:#7e5edf;stop-opacity:1"/>
        </linearGradient>
        <linearGradient id="_Linear16" x1="0" y1="0" x2="1" y2="0" gradientUnits="userSpaceOnUse" gradientTransform="matrix(1091.72,0,0,182.123,1358.49,675.774)">
            <stop offset="0" style="stop-color:#56ccf2;stop-opacity:1"/>
            <stop offset="1" style="stop-color:#7e5edf;stop-opacity:1"/>
        </linearGradient>
        <linearGradient id="_Linear17" x1="0" y1="0" x2="1" y2="0" gradientUnits="userSpaceOnUse" gradientTransform="matrix(1091.72,0,0,182.123,1358.49,675.774)">
            <stop offset="0" style="stop-color:#56ccf2;stop-opacity:1"/>
            <stop offset="1" style="stop-color:#7e5edf;stop-opacity:1"/>
        </linearGradient>
        <linearGradient id="_Linear18" x1="0" y1="0" x2="1" y2="0" gradientUnits="userSpaceOnUse" gradientTransform="matrix(1091.72,0,0,182.123,1358.49,675.774)">
            <stop offset="0" style="stop-color:#56ccf2;stop-opacity:1"/>
            <stop offset="1" style="stop-color:#7e5edf;stop-opacity:1"/>
        </linearGradient>
        <linearGradient id="_Linear19" x1="0" y1="0" x2="1" y2="0" gradientUnits="userSpaceOnUse" gradientTransform="matrix(1091.72,0,0,182.123,1358.49,675.774)">
            <stop offset="0" style="stop-color:#56ccf2;stop-opacity:1"/>
            <stop offset="1" style="stop-color:#7e5edf;stop-opacity:1"/>
        </linearGradient>
        <linearGradient id="_Linear20" x1="0" y1="0" x2="1" y2="0" gradientUnits="userSpaceOnUse" gradientTransform="matrix(1091.72,0,0,182.123,1358.49,675.774)">
            <stop offset="0" style="stop-color:#56ccf2;stop-opacity:1"/>
            <stop offset="1" style="stop-color:#7e5edf;stop-opacity:1"/>
        </linearGradient>
        <linearGradient id="_Linear21" x1="0" y1="0" x2="1" y2="0" gradientUnits="userSpaceOnUse" gradientTransform="matrix(1091.72,0,0,182.123,1358.49,675.774)">
            <stop offset="0" style="stop-color:#56ccf2;stop-opacity:1"/>
            <stop offset="1" style="stop-color:#7e5edf;stop-opacity:1"/>
        </linearGradient>
    </defs>
</svg>
