
<?xml version="1.0" encoding="UTF-8" standalone="no"?>
<!DOCTYPE svg PUBLIC "-//W3C//DTD SVG 1.1//EN" "http://www.w3.org/Graphics/SVG/1.1/DTD/svg11.dtd">
<svg width="100%" height="100%" viewBox="0 0 200 39" version="1.1" xmlns="http://www.w3.org/2000/svg" xmlns:xlink="http://www.w3.org/1999/xlink" xml:space="preserve" xmlns:serif="http://www.serif.com/" style="fill-rule:evenodd;clip-rule:evenodd;stroke-linejoin:round;stroke-miterlimit:1.41421;">
    <g>
        <g>
            <g>
                <path d="M106.079,9.902c-3.148,-1.078 -5.442,-4.275 -5.462,-8.061c0.779,3.313 4.026,5.986 7.832,5.962c3.806,-0.024 7.024,-2.738 7.767,-6.061c0.02,3.706 -2.143,6.874 -5.175,8.055c3.242,1.005 5.713,6.143 5.713,12.323c0,0.466 -0.014,0.927 -0.041,1.38c0.004,-0.009 0.009,-0.019 0.013,-0.028c0,0.298 -0.027,0.59 -0.081,0.877c-0.324,3.268 -1.357,5.496 -2.779,7.953c-1.769,2.652 -3.037,3.564 -5.351,3.564c-3.019,0 -4.536,-2.456 -5.993,-5.669c-1.136,-2.184 -1.832,-5.118 -1.832,-8.342c0,-5.876 2.312,-10.789 5.389,-11.953Zm-1.098,18.968c0.468,1.723 1.088,3.19 1.788,4.268c0.556,0.156 1.142,0.241 1.746,0.241c0.907,0 1.774,-0.192 2.559,-0.529c0.568,-1.088 1.066,-2.442 1.448,-3.979c-1.123,0.464 -2.407,0.727 -3.77,0.727c-1.363,0 -2.648,-0.263 -3.771,-0.728Zm5.261,-18.813c-0.571,0.149 -1.167,0.23 -1.78,0.234c-0.48,0.003 -0.951,-0.042 -1.408,-0.13c-1.673,2.258 -2.968,6.706 -2.968,11.694c0,1.615 0.136,3.173 0.376,4.619c1.258,0.498 2.73,0.795 4.29,0.795c1.54,0 2.993,-0.289 4.24,-0.775c0.209,-1.379 0.325,-2.852 0.325,-4.374c0,-5.177 -1.348,-9.785 -3.075,-12.063Z" style="fill:url(#_Linear1);stroke:url(#_Linear2);stroke-width:0.59px;"/>
            </g>
            <g>
                <path d="M110.929,10.125c-0.017,-0.046 0.003,-0.1 0,-0.001c3.037,0.396 9.497,12.656 9.451,21.186c-0.022,4.13 -0.825,5.177 -2.866,5.727c-1.469,0.396 -6.112,-5.177 -8.702,-12.769c-0.449,-1.318 0.095,-0.603 1.465,-2.646c1.546,-2.307 0.629,-10.475 0.652,-11.497Zm-4.747,0.242c-0.002,-0.101 0.018,-0.07 0,-0.023c0.022,1.016 -1.106,8.984 0.438,11.286c1.369,2.043 2.08,1.268 1.842,2.638c-0.979,5.636 -6.395,11.77 -8.383,12.536c-2.655,1.022 -3.878,-2.559 -3.7,-4.539c1.198,-13.355 9.077,-22.118 9.803,-21.898Z" style="fill:url(#_Linear3);stroke:url(#_Linear4);stroke-width:0.77px;stroke-linecap:round;stroke-miterlimit:1.5;"/>
            </g>
        </g>
        <path d="M18.867,35.797c-2.06,0 -4.047,-0.433 -5.886,-1.3c-1.803,-0.788 -3.421,-1.97 -4.819,-3.468c-1.398,-1.458 -2.465,-3.191 -3.237,-5.083c-0.809,-2.009 -1.177,-4.098 -1.177,-6.226c0,-2.167 0.405,-4.255 1.177,-6.225c0.772,-1.892 1.876,-3.625 3.274,-5.083c1.398,-1.498 3.053,-2.64 4.855,-3.468c1.877,-0.827 3.863,-1.261 5.886,-1.261c3.127,0 6.07,1.025 8.571,2.916c0.846,0.631 1.03,1.852 0.441,2.758c-0.588,0.867 -1.728,1.104 -2.575,0.473c-1.876,-1.458 -4.083,-2.206 -6.437,-2.206c-1.545,0 -3.053,0.315 -4.488,0.985c-1.361,0.591 -2.611,1.497 -3.641,2.6c-1.067,1.143 -1.913,2.404 -2.502,3.862c-0.588,1.497 -0.883,3.034 -0.883,4.649c0,1.616 0.295,3.192 0.883,4.65c0.589,1.458 1.398,2.758 2.465,3.862c2.17,2.324 5.039,3.625 8.093,3.625c1.618,0 3.2,-0.355 4.634,-1.064c1.178,-0.591 2.281,-1.379 3.201,-2.364l0,-8.196c0,-1.104 0.809,-1.97 1.839,-1.97c1.03,0 1.839,0.866 1.839,1.97l0,9.023c0,0.473 -0.184,0.946 -0.478,1.3c-1.398,1.616 -3.016,2.916 -4.892,3.823c-1.913,0.945 -4.01,1.418 -6.143,1.418Z" style="fill:url(#_Linear5);fill-rule:nonzero;"/>
        <path d="M58.558,34.93c-0.847,0.394 -1.95,0.079 -2.465,-0.985l-2.538,-6.068c-2.391,-0.63 -4.782,-0.67 -7.1,-0.118c-1.876,0.394 -3.715,1.142 -5.517,2.325c-1.84,1.221 -3.753,2.837 -5.15,4.295c-0.699,0.748 -1.619,0.985 -2.391,0.472c-0.81,-0.551 -0.699,-1.655 -0.331,-2.561l11.624,-27.031c0.331,-0.709 0.956,-1.142 1.692,-1.142c0.699,0 1.398,0.473 1.655,1.142l11.44,27.031c0.405,1.025 0,2.167 -0.919,2.64Zm-12.213,-24.115l-7.063,16.116c1.95,-1.182 4.525,-2.246 6.585,-2.679c1.986,-0.473 4.009,-0.552 6.032,-0.355l-5.554,-13.082Z" style="fill:url(#_Linear6);fill-rule:nonzero;"/>
        <path d="M72.609,35.088l-0.036,0l-8.314,0c-1.067,0 -1.876,-0.906 -1.876,-1.97l0,-27.031c0,-0.512 0.184,-1.025 0.552,-1.379c0.331,-0.355 0.846,-0.591 1.324,-0.591l8.424,0c2.023,0 3.973,0.433 5.775,1.221c1.766,0.788 3.384,1.931 4.782,3.35c1.361,1.418 2.428,3.073 3.201,4.964c0.772,1.931 1.177,3.941 1.177,6.029c0,2.049 -0.405,4.019 -1.214,5.911c-0.773,1.852 -1.839,3.506 -3.237,4.925c-1.398,1.458 -3.017,2.561 -4.782,3.349c-1.84,0.788 -3.789,1.222 -5.776,1.222Zm-6.511,-3.98l6.585,0c1.508,-0.039 2.943,-0.355 4.304,-0.946c1.361,-0.591 2.575,-1.418 3.605,-2.482c1.03,-1.064 1.839,-2.325 2.464,-3.704c0.589,-1.379 0.883,-2.798 0.883,-4.295c0,-1.537 -0.294,-3.034 -0.883,-4.452c-0.588,-1.38 -1.398,-2.641 -2.427,-3.704c-2.134,-2.246 -4.93,-3.468 -7.946,-3.468l-6.585,0l0,23.051Z" style="fill:url(#_Linear7);fill-rule:nonzero;"/>
        <path d="M150.52,4.117l-17.289,0c-1.03,0 -1.839,0.906 -1.839,1.97l0,27.031c0,1.064 0.809,1.97 1.839,1.97c1.03,0 1.839,-0.906 1.839,-1.97l0,-11.23l13.206,0c0.993,0 1.839,-0.867 1.839,-1.97c0,-1.064 -0.846,-1.971 -1.839,-1.971l-13.206,0l0,-9.89l15.45,0c1.03,0 1.839,-0.867 1.839,-1.97c0,-1.064 -0.809,-1.97 -1.839,-1.97Z" style="fill:url(#_Linear8);fill-rule:nonzero;"/>
        <path d="M173.18,35.088l-16.039,0c-0.993,0 -1.839,-0.867 -1.839,-1.97l0,-27.031c0,-1.103 0.846,-1.97 1.839,-1.97c1.03,0 1.84,0.867 1.84,1.97l0,25.06l14.199,0c1.03,0 1.839,0.867 1.839,1.971c0,1.103 -0.809,1.97 -1.839,1.97Z" style="fill:url(#_Linear9);fill-rule:nonzero;"/>
        <path d="M195.434,4.432c-0.846,-0.591 -1.986,-0.355 -2.538,0.552l-8.387,13.436l-8.35,-13.436c-0.552,-0.907 -1.692,-1.143 -2.538,-0.552c-0.846,0.63 -1.067,1.852 -0.515,2.758l9.564,15.368l0,10.56c0,1.064 0.846,1.97 1.839,1.97c1.03,0 1.84,-0.906 1.84,-1.97l0,-10.56l9.6,-15.368c0.552,-0.906 0.332,-2.128 -0.515,-2.758Z" style="fill:url(#_Linear10);fill-rule:nonzero;"/>
    </g>
    <defs>
        <linearGradient id="_Linear1" x1="0" y1="0" x2="1" y2="0" gradientUnits="userSpaceOnUse" gradientTransform="matrix(16.1372,0,0,34.1237,100.617,18.8044)"><stop offset="0" style="stop-color:#662d8c;stop-opacity:1"/><stop offset="1" style="stop-color:#ed1e79;stop-opacity:1"/></linearGradient>
        <linearGradient id="_Linear2" x1="0" y1="0" x2="1" y2="0" gradientUnits="userSpaceOnUse" gradientTransform="matrix(16.1372,0,0,36.4873,100.617,17.6226)"><stop offset="0" style="stop-color:#662d8c;stop-opacity:1"/><stop offset="1" style="stop-color:#ed1e79;stop-opacity:1"/></linearGradient>
        <linearGradient id="_Linear3" x1="0" y1="0" x2="1" y2="0" gradientUnits="userSpaceOnUse" gradientTransform="matrix(24.0185,0,0,26.9886,96.3618,23.5626)"><stop offset="0" style="stop-color:#662d8c;stop-opacity:0.619608"/><stop offset="1" style="stop-color:#ed1e79;stop-opacity:0.619608"/></linearGradient>
        <linearGradient id="_Linear4" x1="0" y1="0" x2="1" y2="0" gradientUnits="userSpaceOnUse" gradientTransform="matrix(23.0378,0,0,25.6894,97.0047,24.2053)"><stop offset="0" style="stop-color:#662d8c;stop-opacity:1"/><stop offset="1" style="stop-color:#ed1e79;stop-opacity:1"/></linearGradient>
        <linearGradient id="_Linear5" x1="0" y1="0" x2="1" y2="0" gradientUnits="userSpaceOnUse" gradientTransform="matrix(233.336,0,0,32.1137,3.74789,19.7402)"><stop offset="0" style="stop-color:#852d91;stop-opacity:1"/><stop offset="1" style="stop-color:#312a6c;stop-opacity:1"/></linearGradient>
        <linearGradient id="_Linear6" x1="0" y1="0" x2="1" y2="0" gradientUnits="userSpaceOnUse" gradientTransform="matrix(233.336,0,0,32.1137,3.74789,19.7402)"><stop offset="0" style="stop-color:#852d91;stop-opacity:1"/><stop offset="1" style="stop-color:#312a6c;stop-opacity:1"/></linearGradient>
        <linearGradient id="_Linear7" x1="0" y1="0" x2="1" y2="0" gradientUnits="userSpaceOnUse" gradientTransform="matrix(233.336,0,0,32.1137,3.74789,19.7402)"><stop offset="0" style="stop-color:#852d91;stop-opacity:1"/><stop offset="1" style="stop-color:#312a6c;stop-opacity:1"/></linearGradient>
        <linearGradient id="_Linear8" x1="0" y1="0" x2="1" y2="0" gradientUnits="userSpaceOnUse" gradientTransform="matrix(233.336,0,0,32.1137,3.74789,19.7402)"><stop offset="0" style="stop-color:#852d91;stop-opacity:1"/><stop offset="1" style="stop-color:#312a6c;stop-opacity:1"/></linearGradient>
        <linearGradient id="_Linear9" x1="0" y1="0" x2="1" y2="0" gradientUnits="userSpaceOnUse" gradientTransform="matrix(233.336,0,0,32.1137,3.74789,19.7402)"><stop offset="0" style="stop-color:#852d91;stop-opacity:1"/><stop offset="1" style="stop-color:#312a6c;stop-opacity:1"/></linearGradient>
        <linearGradient id="_Linear10" x1="0" y1="0" x2="1" y2="0" gradientUnits="userSpaceOnUse" gradientTransform="matrix(233.336,0,0,32.1137,3.74789,19.7402)"><stop offset="0" style="stop-color:#852d91;stop-opacity:1"/><stop offset="1" style="stop-color:#312a6c;stop-opacity:1"/></linearGradient>
    </defs>
</svg>
